<?xml version="1.0" encoding="UTF-8"?>
<svg width="32px" height="33px" viewBox="0 0 32 33" version="1.1" xmlns="http://www.w3.org/2000/svg" xmlns:xlink="http://www.w3.org/1999/xlink">
    <!-- Generator: Sketch 46.2 (44496) - http://www.bohemiancoding.com/sketch -->
    <title>Fill 110</title>
    <desc>Created with Sketch.</desc>
    <defs></defs>
    <g id="SketchAppSources.com" stroke="none" stroke-width="1" fill="none" fill-rule="evenodd">
        <g id="Material-Icons" transform="translate(-1163.000000, -2076.000000)" fill="#003082">
            <path d="M1179,2080.036 C1181.32,2080.036 1183.2,2081.916 1183.2,2084.236 C1183.2,2086.556 1181.32,2088.436 1179,2088.436 C1176.68,2088.436 1174.8,2086.556 1174.8,2084.236 C1174.8,2081.916 1176.68,2080.036 1179,2080.036 L1179,2080.036 Z M1179,2098.036 C1184.94,2098.036 1191.2,2100.956 1191.2,2102.236 L1191.2,2104.436 L1166.8,2104.436 L1166.8,2102.236 C1166.8,2100.956 1173.06,2098.036 1179,2098.036 L1179,2098.036 Z M1179,2076.236 C1174.58,2076.236 1171,2079.816 1171,2084.236 C1171,2088.656 1174.58,2092.236 1179,2092.236 C1183.42,2092.236 1187,2088.656 1187,2084.236 C1187,2079.816 1183.42,2076.236 1179,2076.236 L1179,2076.236 Z M1179,2094.236 C1173.66,2094.236 1163,2096.916 1163,2102.236 L1163,2108.236 L1195,2108.236 L1195,2102.236 C1195,2096.916 1184.34,2094.236 1179,2094.236 L1179,2094.236 Z" id="Fill-110"></path>
        </g>
    </g>
</svg>