<?xml version="1.0" encoding="UTF-8"?>
<svg width="36px" height="40px" viewBox="0 0 36 40" version="1.1" xmlns="http://www.w3.org/2000/svg" xmlns:xlink="http://www.w3.org/1999/xlink">
    <!-- Generator: Sketch 46.2 (44496) - http://www.bohemiancoding.com/sketch -->
    <title>Fill 95</title>
    <desc>Created with Sketch.</desc>
    <defs></defs>
    <g id="SketchAppSources.com" stroke="none" stroke-width="1" fill="none" fill-rule="evenodd">
        <g id="Material-Icons" transform="translate(-898.000000, -16068.000000)" fill="#003082">
            <g id="social" transform="translate(239.000000, 15816.000000)">
                <path d="M689,280.16 C687.48,280.16 686.12,280.76 685.08,281.7 L670.82,273.4 C670.92,272.94 671,272.48 671,272 C671,271.52 670.92,271.06 670.82,270.6 L684.92,262.38 C686,263.38 687.42,264 689,264 C692.32,264 695,261.32 695,258 C695,254.68 692.32,252 689,252 C685.68,252 683,254.68 683,258 C683,258.48 683.08,258.94 683.18,259.4 L669.08,267.62 C668,266.62 666.58,266 665,266 C661.68,266 659,268.68 659,272 C659,275.32 661.68,278 665,278 C666.58,278 668,277.38 669.08,276.38 L683.32,284.7 C683.22,285.12 683.16,285.56 683.16,286 C683.16,289.22 685.78,291.84 689,291.84 C692.22,291.84 694.84,289.22 694.84,286 C694.84,282.78 692.22,280.16 689,280.16" id="Fill-95"></path>
            </g>
        </g>
    </g>
</svg>