<?xml version="1.0" encoding="UTF-8"?>
<svg width="39px" height="40px" viewBox="0 0 39 40" version="1.1" xmlns="http://www.w3.org/2000/svg" xmlns:xlink="http://www.w3.org/1999/xlink">
    <!-- Generator: Sketch 46.2 (44496) - http://www.bohemiancoding.com/sketch -->
    <title>Fill 90</title>
    <desc>Created with Sketch.</desc>
    <defs></defs>
    <g id="SketchAppSources.com" stroke="none" stroke-width="1" fill="none" fill-rule="evenodd">
        <g id="Material-Icons" transform="translate(-896.000000, -2444.000000)" fill="#003082">
            <path d="M930.317663,2465.96 C930.397663,2465.32 930.457663,2464.68 930.457663,2464 C930.457663,2463.32 930.397663,2462.68 930.317663,2462.04 L934.537663,2458.74 C934.917663,2458.44 935.017663,2457.9 934.777663,2457.46 L930.777663,2450.54 C930.537663,2450.1 929.997663,2449.94 929.557663,2450.1 L924.578663,2452.1 C923.538663,2451.3 922.418663,2450.64 921.198663,2450.14 L920.438663,2444.84 C920.378663,2444.36 919.958663,2444 919.458663,2444 L911.458663,2444 C910.958663,2444 910.538663,2444.36 910.478663,2444.84 L909.718663,2450.14 C908.498663,2450.64 907.378663,2451.32 906.338663,2452.1 L901.358663,2450.1 C900.898663,2449.92 900.378663,2450.1 900.138663,2450.54 L896.138663,2457.46 C895.878663,2457.9 895.998663,2458.44 896.378663,2458.74 L900.598663,2462.04 C900.518663,2462.68 900.458663,2463.34 900.458663,2464 C900.458663,2464.66 900.518663,2465.32 900.598663,2465.96 L896.378663,2469.26 C895.998663,2469.56 895.898663,2470.1 896.138663,2470.54 L900.138663,2477.46 C900.378663,2477.9 900.918663,2478.06 901.358663,2477.9 L906.338663,2475.9 C907.378663,2476.7 908.498663,2477.36 909.718663,2477.86 L910.478663,2483.16 C910.538663,2483.64 910.958663,2484 911.458663,2484 L919.458663,2484 C919.958663,2484 920.378663,2483.64 920.438663,2483.16 L921.198663,2477.86 C922.418663,2477.36 923.538663,2476.68 924.578663,2475.9 L929.557663,2477.9 C930.017663,2478.08 930.537663,2477.9 930.777663,2477.46 L934.777663,2470.54 C935.017663,2470.1 934.917663,2469.56 934.537663,2469.26 L930.317663,2465.96 L930.317663,2465.96 Z M915.458663,2471 C911.598663,2471 908.458663,2467.86 908.458663,2464 C908.458663,2460.14 911.598663,2457 915.458663,2457 C919.318663,2457 922.458663,2460.14 922.458663,2464 C922.458663,2467.86 919.318663,2471 915.458663,2471 L915.458663,2471 Z" id="Fill-90"></path>
        </g>
    </g>
</svg>