<?xml version="1.0" encoding="UTF-8"?>
<svg width="40px" height="40px" viewBox="0 0 40 40" version="1.1" xmlns="http://www.w3.org/2000/svg" xmlns:xlink="http://www.w3.org/1999/xlink">
    <!-- Generator: Sketch 46.2 (44496) - http://www.bohemiancoding.com/sketch -->
    <title>Fill 92</title>
    <desc>Created with Sketch.</desc>
    <defs></defs>
    <g id="SketchAppSources.com" stroke="none" stroke-width="1" fill="none" fill-rule="evenodd">
        <g id="Material-Icons" transform="translate(-632.000000, -2444.000000)" fill="#003082">
            <path d="M652,2479.999 C643.16,2479.999 636,2472.839 636,2463.999 C636,2455.159 643.16,2447.999 652,2447.999 C660.84,2447.999 668,2455.159 668,2463.999 C668,2472.839 660.84,2479.999 652,2479.999 M651.98,2444 C640.94,2444 632,2452.96 632,2463.999 C632,2475.039 640.94,2483.999 651.98,2483.999 C663.04,2483.999 672,2475.039 672,2463.999 C672,2452.96 663.04,2444 651.98,2444 M653,2454 L650,2454 L650,2466 L660.5,2472.3 L662,2469.841 L653,2464.5 L653,2454" id="Fill-92"></path>
        </g>
    </g>
</svg>