<?xml version="1.0" encoding="UTF-8"?>
<svg width="40px" height="37px" viewBox="0 0 40 37" version="1.1" xmlns="http://www.w3.org/2000/svg" xmlns:xlink="http://www.w3.org/1999/xlink">
    <!-- Generator: Sketch 46.2 (44496) - http://www.bohemiancoding.com/sketch -->
    <title>Fill 146</title>
    <desc>Created with Sketch.</desc>
    <defs></defs>
    <g id="SketchAppSources.com" stroke="none" stroke-width="1" fill="none" fill-rule="evenodd">
        <g id="Material-Icons" transform="translate(-1027.000000, -1329.000000)" fill="#003082">
            <path d="M1056,1329 C1052.52,1329 1049.179,1330.62 1047,1333.18 C1044.819,1330.62 1041.479,1329 1038,1329 C1031.84,1329 1027,1333.84 1027,1340 C1027,1347.56 1033.8,1353.72 1044.099,1363.08 L1047,1365.7 L1049.899,1363.06 C1060.199,1353.72 1066.999,1347.56 1066.999,1340 C1066.999,1333.84 1062.159,1329 1056,1329 L1056,1329 Z M1047.199,1360.1 L1047,1360.3 L1046.799,1360.1 C1037.279,1351.48 1031,1345.78 1031,1340 C1031,1336 1034,1333 1038,1333 C1041.079,1333 1044.079,1334.98 1045.14,1337.72 L1048.879,1337.72 C1049.919,1334.98 1052.919,1333 1056,1333 C1060,1333 1063,1336 1063,1340 C1063,1345.78 1056.719,1351.48 1047.199,1360.1 L1047.199,1360.1 Z" id="Fill-146"></path>
        </g>
    </g>
</svg>