<?xml version="1.0" encoding="UTF-8"?>
<svg width="35px" height="36px" viewBox="0 0 35 36" version="1.1" xmlns="http://www.w3.org/2000/svg" xmlns:xlink="http://www.w3.org/1999/xlink">
    <!-- Generator: Sketch 46.2 (44496) - http://www.bohemiancoding.com/sketch -->
    <title>Fill 91</title>
    <desc>Created with Sketch.</desc>
    <defs></defs>
    <g id="SketchAppSources.com" stroke="none" stroke-width="1" fill="none" fill-rule="evenodd">
        <g id="Material-Icons" transform="translate(-766.000000, -2445.000000)" fill="#003082">
            <path d="M791,2467.78905 L789.42,2467.78905 L788.86,2467.24905 C790.82,2464.96905 792,2462.00905 792,2458.78905 C792,2451.60905 786.18,2445.78905 779,2445.78905 C771.82,2445.78905 766,2451.60905 766,2458.78905 C766,2465.96905 771.82,2471.78805 779,2471.78805 C782.22,2471.78805 785.18,2470.60905 787.46,2468.64805 L788,2469.20905 L788,2470.78905 L798,2480.76805 L800.98,2477.78805 L791,2467.78905 L791,2467.78905 Z M779,2467.78905 C774.02,2467.78905 770,2463.76905 770,2458.78905 C770,2453.80905 774.02,2449.78905 779,2449.78905 C783.98,2449.78905 788,2453.80905 788,2458.78905 C788,2463.76905 783.98,2467.78905 779,2467.78905 L779,2467.78905 Z" id="Fill-91"></path>
        </g>
    </g>
</svg>